<svg id="Layer_1" data-name="Layer 1" xmlns="http://www.w3.org/2000/svg" viewBox="0 0 300 300"><defs><style>.cls-1{fill:#ffffff;}</style></defs><title>SocialIcons</title><path class="cls-1" d="M150,0A150,150,0,1,0,300,150,150,150,0,0,0,150,0Zm21.32,209.86A200.79,200.79,0,0,1,150,211.09c-11.17,0-21.45-1.13-21.45-1.13C102.44,207,75,196.9,75,151.85A45.44,45.44,0,0,1,87.1,120.3c-1.21-3-5.24-14.93,1.15-31.11,0,0,9.87-3.16,32.33,12.05a111.43,111.43,0,0,1,58.86,0c22.44-15.21,32.3-12.05,32.3-12.05,6.41,16.19,2.38,28.14,1.17,31.11A45.37,45.37,0,0,1,225,151.85C225,197,197.51,206.95,171.32,209.86Z"/></svg>
