<svg id="Layer_1" data-name="Layer 1" xmlns="http://www.w3.org/2000/svg" viewBox="0 0 300 300"><defs><style>.cls-1{fill:#ffffff;}</style></defs><title>SocialIcons</title><ellipse class="cls-1" cx="150.18" cy="150.17" rx="28.85" ry="28.78"/><path class="cls-1" d="M183.39,120.7h20.28a4.19,4.19,0,0,0,4.2-4.19V96.28a4.19,4.19,0,0,0-4.2-4.19H183.39a4.19,4.19,0,0,0-4.2,4.19v20.23A4.19,4.19,0,0,0,183.39,120.7Z"/><path class="cls-1" d="M150,0A150,150,0,1,0,300,150,150,150,0,0,0,150,0Zm75,207.21A17.81,17.81,0,0,1,207.17,225H92.83A17.81,17.81,0,0,1,75,207.21V92.79A17.81,17.81,0,0,1,92.83,75H207.17A17.81,17.81,0,0,1,225,92.79Z"/><path class="cls-1" d="M195.8,150.17a45.63,45.63,0,1,1-89.64-12h-14v65.23a4.19,4.19,0,0,0,4.2,4.19H204a4.19,4.19,0,0,0,4.2-4.19V138.14h-14A45.28,45.28,0,0,1,195.8,150.17Z"/></svg>
