<svg id="Layer_1" data-name="Layer 1" xmlns="http://www.w3.org/2000/svg" viewBox="0 0 300 300"><defs><style>.cls-1{fill:#ffffff;}</style></defs><title>SocialIcons</title><path class="cls-1" d="M150,0A150,150,0,1,0,300,150,150,150,0,0,0,150,0ZM108.58,224.86H77.47v-100h31.11ZM93,111.19a18,18,0,1,1,18-18A18,18,0,0,1,93,111.19ZM225,224.86H193.92V176.23c0-11.6-.2-26.52-16.15-26.52-16.17,0-18.64,12.64-18.64,25.69v49.47h-31v-100h29.8v13.67h.43c4.14-7.86,14.29-16.15,29.41-16.15,31.47,0,37.29,20.71,37.29,47.64Z"/></svg>
