<?xml version="1.0" encoding="utf-8"?>
<!-- Generator: Adobe Illustrator 21.1.0, SVG Export Plug-In . SVG Version: 6.00 Build 0)  -->
<svg version="1.1" id="Layer_1" xmlns="http://www.w3.org/2000/svg" xmlns:xlink="http://www.w3.org/1999/xlink" x="0px" y="0px"
	 viewBox="0 0 300 300" style="enable-background:new 0 0 300 300;" xml:space="preserve">
<style type="text/css">
	.st0{fill:#ffffff;}
</style>
<title>SocialIcons</title>
<g>
	<path class="st0" d="M150,0C67.2,0,0,67.2,0,150s67.2,150,150,150s150-67.2,150-150S232.8,0,150,0z M226.6,155.7
		c-5.6,6.9-16.4,15.5-32.8,22.3c17.5,59.3-42.5,68.7-41.6,38.3c0,0.5,0-16.3-0.1-28.9c-1.3-0.3-2.6-0.7-4.2-1
		c0,12.6-0.1,30.5-0.1,29.9c0.9,30.4-59,21-41.6-38.3c-16.5-6.8-27.2-15.4-32.8-22.3c-2.9-4.3,0.2-8.8,4.9-5.5
		c0.6,0.5,1.3,0.9,1.9,1.3V90.2c0-8.5,6.4-15.4,14.3-15.4h111.1c7.9,0,14.3,6.9,14.3,15.4v61.3c0.6-0.4,1.2-0.8,1.8-1.3
		C226.4,146.9,229.5,151.4,226.6,155.7z"/>
	<path class="st0" d="M199.6,83h-98.3c-9.9,0-12.6,3.4-12.6,14.2v59.5c20.9,11,38.9,9,48.7,8.7c4.1-0.2,6.8,0.7,8.4,2.4
		c0.3,0.2,0.6,0.5,0.9,0.8c1.8,1.7,3.7,3.2,5.4,4.5c0.4-4.9,3.1-8,10.4-7.6c10,0.3,28.3,2.3,49.7-9.2v-59C212.2,87,209,83,199.6,83z
		 M128.9,158.1c-10.5,0-19.1-8-19.1-17.9s8.5-17.9,19.1-17.9s19.1,8,19.1,17.9S139.4,158.1,128.9,158.1z M173.3,158.1
		c-10.5,0-19.1-8-19.1-17.9c0-9.9,8.6-17.9,19.1-17.9c10.5,0,19.1,8,19.1,17.9C192.4,150.1,183.8,158.1,173.3,158.1z"/>
</g>
</svg>
