<svg id="Layer_1" data-name="Layer 1" xmlns="http://www.w3.org/2000/svg" viewBox="0 0 300 300"><defs><style>.cls-1{fill:#ffffff;}</style></defs><title>SocialIcons</title><path class="cls-1" d="M150,0A150,150,0,1,0,300,150,150,150,0,0,0,150,0Zm59.64,119.41q.09,2,.09,4c0,40.67-31,87.56-87.56,87.56A87.1,87.1,0,0,1,75,197.12a62.51,62.51,0,0,0,7.34.43,61.75,61.75,0,0,0,38.22-13.17A30.81,30.81,0,0,1,91.81,163a30.86,30.86,0,0,0,13.9-.53A30.79,30.79,0,0,1,81,132.31c0-.13,0-.26,0-.39A30.65,30.65,0,0,0,95,135.77a30.81,30.81,0,0,1-9.52-41.09,87.37,87.37,0,0,0,63.43,32.15,30.79,30.79,0,0,1,52.44-28.07,61.61,61.61,0,0,0,19.54-7.47,30.86,30.86,0,0,1-13.53,17A61.53,61.53,0,0,0,225,103.48,62.55,62.55,0,0,1,209.64,119.41Z"/></svg>
