<svg id="Layer_1" data-name="Layer 1" xmlns="http://www.w3.org/2000/svg" viewBox="0 0 300 300"><defs><style>.cls-1{fill:#ffffff;}</style></defs><title>SocialIcons</title><path class="cls-1" d="M150,0A150,150,0,1,0,300,150,150,150,0,0,0,150,0Zm75,155.67a227.21,227.21,0,0,1-1.5,24.28s-1.47,10.34-6,14.89c-5.7,6-12.1,6-15,6.35-21,1.52-52.51,1.56-52.51,1.56s-39-.36-51-1.51c-3.34-.63-10.83-.44-16.54-6.41-4.5-4.55-6-14.89-6-14.89A226.87,226.87,0,0,1,75,155.67V144.29A226.89,226.89,0,0,1,76.5,120s1.46-10.34,6-14.89c5.71-6,12.1-6,15-6.35,21-1.52,52.48-1.52,52.48-1.52H150s31.49,0,52.48,1.52c2.93.35,9.33.38,15,6.35,4.5,4.55,6,14.89,6,14.89a227.23,227.23,0,0,1,1.5,24.28Z"/><polygon class="cls-1" points="134.51 169.46 175.04 148.46 134.51 127.31 134.51 169.46"/></svg>
